<?xml version="1.0" encoding="UTF-8" standalone="no"?>
<svg width="19px" height="13px" viewBox="0 0 19 13" version="1.1" xmlns="http://www.w3.org/2000/svg">
    <title>Volume Max</title>
    <g id="Page-1" stroke="none" stroke-width="1" fill="none" fill-rule="evenodd">
        <g id="Player" transform="translate(-2500.000000, -315.000000)" fill="#222">
            <g id="Volume-Max" transform="translate(2500.000000, 315.000000)">
                <g id="Fill-1-+-Stroke-3">
                    <path d="M4.54566667,4 L0,4 L0,9 L4.54566667,9 L9,12.5 L9,0.5 L4.54566667,4 Z" id="Fill-1"></path>
                    <path d="M15.4276699,2.08033009 C17.8577767,4.51043687 17.8577767,8.48956313 15.4276699,10.9196699 L14.7206699,11.6266699 C14.4277767,11.9195631 14.4277767,12.3944369 14.7206699,12.6873301 C15.0135631,12.9802233 15.4884369,12.9802233 15.7813301,12.6873301 L16.4883301,11.9803301 C19.5042233,8.96443687 19.5042233,4.03556313 16.4883301,1.01966991 L15.7813301,0.312669914 C15.4884369,0.0197766953 15.0135631,0.0197766953 14.7206699,0.312669914 C14.4277767,0.605563133 14.4277767,1.08043687 14.7206699,1.37333009 L15.4276699,2.08033009 Z M12.0246699,4.70533009 C13.0107767,5.69143687 13.0107767,7.30856313 12.0246699,8.29466991 L11.6926699,8.62666991 C11.3997767,8.91956313 11.3997767,9.39443687 11.6926699,9.68733009 C11.9855631,9.9802233 12.4604369,9.9802233 12.7533301,9.68733009 L13.0853301,9.35533009 C14.6572233,7.78343687 14.6572233,5.21656313 13.0853301,3.64466991 L12.7533301,3.31266991 C12.4604369,3.0197767 11.9855631,3.0197767 11.6926699,3.31266991 C11.3997767,3.60556313 11.3997767,4.08043687 11.6926699,4.37333009 L12.0246699,4.70533009 Z" id="Stroke-3"></path>
                </g>
            </g>
        </g>
    </g>
</svg>
