<?xml version="1.0" encoding="utf-8"?>
<!-- Generator: Adobe Illustrator 18.1.1, SVG Export Plug-In . SVG Version: 6.00 Build 0)  -->
<svg version="1.1" id="Layer_1" xmlns="http://www.w3.org/2000/svg" xmlns:xlink="http://www.w3.org/1999/xlink" x="0px" y="0px"
	 viewBox="-500 983 19 16" enable-background="new -500 983 19 16" xml:space="preserve">
<title>Repeat Hover</title>
<g id="Page-1">
	<g id="Player" transform="translate(-2721.000000, -313.000000)">
		<g id="Repeat-Hover" transform="translate(2721.000000, 313.000000)">
			<path id="Fill-1" fill="#FE5C0B" d="M-491,989h-1v1h1v4h1v-6h-1V989z"/>
			<path id="Fill-6" fill="#FE5C0B" d="M-483.5,993l-2.5-3h5L-483.5,993"/>
			<path id="Fill-7" fill="#FE5C0B" d="M-497.5,991l2.5,3h-5L-497.5,991"/>
			<path id="Oval-112" fill="#FE5C0B" d="M-484.7,994h1.1l0,0c-1.2,2.9-4.1,5-7.4,5c-3.7,0-6.9-2.5-7.7-6l0,0h1c0.9,2.9,3.5,5,6.7,5
				C-488.2,998-485.8,996.4-484.7,994z M-484.1,990h1c-0.5-3.9-3.9-7-7.9-7c-3.7,0-6.9,2.5-7.7,6h1c0.9-2.9,3.5-5,6.7-5
				C-487.5,984-484.6,986.6-484.1,990z"/>
		</g>
	</g>
</g>
</svg>
